<svg width="16" height="16" viewBox="0 0 16 16" fill="none" xmlns="http://www.w3.org/2000/svg">
<g clip-path="url(#clip0_5_8)">
<path d="M3.95001 0.950012H11.95C13.6069 0.950012 14.95 2.29316 14.95 3.95001V11.95C14.95 13.6069 13.6069 14.95 11.95 14.95H3.95001C2.29316 14.95 0.950012 13.6069 0.950012 11.95V3.95001L0.953918 3.79572C1.03164 2.26167 2.26167 1.03164 3.79572 0.953918L3.95001 0.950012Z" stroke="white" stroke-width="2"/>
<path d="M7.80692 3.88728C7.86005 3.68994 8.14003 3.68994 8.19317 3.88728L8.76759 6.02068C8.86123 6.36855 8.90808 6.54248 9.0005 6.68467C9.08229 6.81049 9.18957 6.91775 9.31541 6.99956C9.45758 7.09197 9.63151 7.13883 9.97938 7.23247L12.1128 7.80689C12.3101 7.86002 12.3101 8.14 12.1128 8.19314L9.97938 8.76755C9.63151 8.8612 9.45758 8.90805 9.31541 9.00047C9.18957 9.08226 9.08229 9.18954 9.0005 9.31538C8.90808 9.45755 8.86123 9.63148 8.76759 9.97935L8.19317 12.1128C8.14003 12.3101 7.86005 12.3101 7.80692 12.1128L7.2325 9.97935C7.13886 9.63148 7.092 9.45755 6.99959 9.31538C6.91778 9.18954 6.81052 9.08226 6.6847 9.00047C6.54251 8.90805 6.36858 8.8612 6.02072 8.76755L3.88731 8.19314C3.68997 8.14 3.68997 7.86002 3.88731 7.80689L6.02072 7.23247C6.36858 7.13883 6.54251 7.09197 6.6847 6.99956C6.81052 6.91775 6.91778 6.81049 6.99959 6.68467C7.092 6.54248 7.13886 6.36855 7.2325 6.02068L7.80692 3.88728Z" stroke="white" stroke-linecap="round" stroke-linejoin="round"/>
<path d="M8.0323 4.97501V11.2153M5.03998 8.0052H11.0717M5.87327 7.24765H9.85989M6.31833 8.8101H9.7936" stroke="#ffffff"/>
</g>
<defs>
<clipPath id="clip0_5_8">
<rect width="16" height="16" stroke="white"/>
</clipPath>
</defs>
</svg>
